<svg width="396" height="396" viewBox="0 0 396 396" xmlns="http://www.w3.org/2000/svg"><title>logo-blackcircle</title><g fill="none" fill-rule="evenodd"><path d="M395.716 198.216c0 109.078-88.422 197.5-197.5 197.5-109.077 0-197.5-88.422-197.5-197.5C.716 89.14 89.14.716 198.216.716c109.078 0 197.5 88.423 197.5 197.5" fill="#222"/><path d="M240.785 111.62h38.667L179.357 269.543h82.03v13.497h-90.584l-13.389 21.123H278.11v13.5H132.723l21.925-34.623H116l99.816-157.632H140.61V111.62h83.936l13.195-20.836H123.887V77h138.841l-21.943 34.62zm-8.74 13.788h22.42l-91.27 144.135h-22.508l91.359-144.135z" fill="#FFF"/></g></svg>